<?xml version="1.0" standalone="no"?><!DOCTYPE svg PUBLIC "-//W3C//DTD SVG 1.1//EN" "http://www.w3.org/Graphics/SVG/1.1/DTD/svg11.dtd"><svg t="1492594636735" class="icon" style="" viewBox="0 0 1024 1024" version="1.1" xmlns="http://www.w3.org/2000/svg" p-id="3919" xmlns:xlink="http://www.w3.org/1999/xlink" width="200" height="200"><defs><style type="text/css"></style></defs><path d="M512.195943 0C229.253731 0 0 229.253731 0 512.195943s229.253731 511.804057 512.195943 511.804057 511.804057-229.253731 511.804057-511.804057S794.746269 0 512.195943 0zM512.195943 973.8385 512.195943 973.8385c-255.510142 0-462.818217-207.308075-462.818217-462.818217S256.293915 48.202067 512.195943 48.202067s462.818217 207.308075 462.818217 462.818217C974.622273 766.530425 767.706085 973.8385 512.195943 973.8385z" p-id="3920" fill="#e6e6e6"></path><path d="M672.477612 307.631075C672.477612 307.631075 672.477612 307.631075 672.477612 307.631075c-32.918485 0.391887-59.174895 27.43207-58.391121 59.958668 0.391887 32.918485 27.43207 58.783008 59.958668 58.391121 32.526598-0.391887 58.391121-26.648297 58.391121-59.174895C732.43628 333.887486 705.396096 307.239189 672.477612 307.631075z" p-id="3921" fill="#e6e6e6"></path><path d="M352.698048 425.980865c32.918485-0.391887 58.783008-27.43207 58.391121-59.958668s-27.43207-58.783008-59.958668-58.391121c-32.526598 0.391887-58.783008 27.040184-58.391121 59.566781C292.73938 399.724455 319.779564 426.372752 352.698048 425.980865z" p-id="3922" fill="#e6e6e6"></path><path d="M516.898584 558.04669c-81.512438 0-157.538462 41.539992-201.821661 109.728282-9.405281 14.107922-5.486414 33.310371 8.621508 42.715653 5.094527 3.52698 10.972828 5.094527 16.851129 5.094527l2.35132 0c9.797168 0.391887 19.202449-4.310754 24.688863-12.540375 54.472254-82.296211 165.376196-105.025641 248.064294-50.553387 19.986223 13.324148 37.229238 30.567164 50.553387 50.553387 5.486414 8.229621 14.891695 12.932262 25.08075 12.540375l1.567547 0c16.851129 0 30.959051-14.107922 30.567164-30.959051 0-5.878301-1.959434-11.756602-5.094527-16.851129C674.045159 599.978569 598.411022 558.438576 516.898584 558.04669z" p-id="3923" fill="#e6e6e6"></path></svg>