<?xml version="1.0" standalone="no"?><!DOCTYPE svg PUBLIC "-//W3C//DTD SVG 1.1//EN" "http://www.w3.org/Graphics/SVG/1.1/DTD/svg11.dtd"><svg t="1492594697580" class="icon" style="" viewBox="0 0 1024 1024" version="1.1" xmlns="http://www.w3.org/2000/svg" p-id="5547" xmlns:xlink="http://www.w3.org/1999/xlink" width="200" height="200"><defs><style type="text/css"></style></defs><path d="M512 0C229.229714 0 0 229.229714 0 512s229.229714 512 512 512 512-229.229714 512-512S794.770286 0 512 0zM512 146.285714c40.374857 0 73.142857 32.694857 73.142857 73.142857S552.374857 292.571429 512 292.571429 438.857143 259.876571 438.857143 219.428571 471.625143 146.285714 512 146.285714zM658.285714 804.571429 365.714286 804.571429l0-73.142857 73.142857 0L438.857143 438.857143 365.714286 438.857143 365.714286 365.714286l219.428571 0 0 365.714286 73.142857 0L658.285714 804.571429z" p-id="5548" fill="#e6e6e6"></path></svg>