<?xml version="1.0" standalone="no"?><!DOCTYPE svg PUBLIC "-//W3C//DTD SVG 1.1//EN" "http://www.w3.org/Graphics/SVG/1.1/DTD/svg11.dtd"><svg t="1492594832958" class="icon" style="" viewBox="0 0 1024 1024" version="1.1" xmlns="http://www.w3.org/2000/svg" p-id="6597" xmlns:xlink="http://www.w3.org/1999/xlink" width="200" height="200"><defs><style type="text/css"></style></defs><path d="M509.866667 270.933333h14.933333c23.466667 0 42.666667-19.2 42.666667-42.666666V42.666667c0-23.466667-19.2-42.666667-42.666667-42.666667h-14.933333c-23.466667 0-42.666667 19.2-42.666667 42.666667v185.6c0 23.466667 19.2 42.666667 42.666667 42.666666zM341.333333 343.466667l10.666667-10.666667c17.066667-17.066667 17.066667-44.8 0-59.733333l-132.266667-132.266667c-17.066667-17.066667-44.8-17.066667-59.733333 0l-10.666667 10.666667c-17.066667 17.066667-17.066667 42.666667 0 59.733333l132.266667 132.266667c14.933333 17.066667 42.666667 17.066667 59.733333 0zM270.933333 514.133333v-14.933333c0-23.466667-19.2-42.666667-42.666666-42.666667H42.666667c-23.466667 0-42.666667 19.2-42.666667 42.666667v14.933333c0 23.466667 19.2 42.666667 42.666667 42.666667h185.6c23.466667 0 42.666667-19.2 42.666666-42.666667zM343.466667 682.666667l-10.666667-10.666667c-17.066667-17.066667-44.8-17.066667-59.733333 0l-132.266667 132.266667c-17.066667 17.066667-17.066667 44.8 0 59.733333l10.666667 10.666667c17.066667 17.066667 44.8 17.066667 59.733333 0l132.266667-132.266667c17.066667-14.933333 17.066667-42.666667 0-59.733333zM514.133333 753.066667h-14.933333c-23.466667 0-42.666667 19.2-42.666667 42.666666V981.333333c0 23.466667 19.2 42.666667 42.666667 42.666667h14.933333c23.466667 0 42.666667-19.2 42.666667-42.666667v-185.6c0-23.466667-19.2-42.666667-42.666667-42.666666zM682.666667 680.533333l-10.666667 10.666667c-17.066667 17.066667-17.066667 44.8 0 59.733333l132.266667 132.266667c17.066667 17.066667 44.8 17.066667 59.733333 0l10.666667-10.666667c17.066667-17.066667 17.066667-44.8 0-59.733333l-132.266667-132.266667c-14.933333-17.066667-42.666667-17.066667-59.733333 0zM753.066667 509.866667v14.933333c0 23.466667 19.2 42.666667 42.666666 42.666667H981.333333c23.466667 0 42.666667-19.2 42.666667-42.666667v-14.933333c0-23.466667-19.2-42.666667-42.666667-42.666667h-185.6c-23.466667 0-42.666667 19.2-42.666666 42.666667zM680.533333 341.333333l10.666667 10.666667c17.066667 17.066667 44.8 17.066667 59.733333 0l132.266667-132.266667c17.066667-17.066667 17.066667-44.8 0-59.733333l-10.666667-10.666667c-17.066667-17.066667-44.8-17.066667-59.733333 0l-132.266667 132.266667c-17.066667 14.933333-17.066667 42.666667 0 59.733333z" p-id="6598" fill="#e6e6e6"></path></svg>