<?xml version="1.0" standalone="no"?><!DOCTYPE svg PUBLIC "-//W3C//DTD SVG 1.1//EN" "http://www.w3.org/Graphics/SVG/1.1/DTD/svg11.dtd"><svg t="1492595154062" class="icon" style="" viewBox="0 0 1190 1024" version="1.1" xmlns="http://www.w3.org/2000/svg" p-id="7334" xmlns:xlink="http://www.w3.org/1999/xlink" width="232.421875" height="200"><defs><style type="text/css"></style></defs><path d="M1172.131858 903.38416c0 0-450.274654-769.948338-508.764679-866.534397-68.80417-82.910304-148.279749 0-148.279749 0s-399.936907 691.051029-473.583258 816.203298C-61.024111 998.679082 58.682782 1024 58.682782 1024l1091.682525 0C1222.228658 996.861187 1172.131858 903.38416 1172.131858 903.38416M594.225686 865.36124c-32.30004 0-58.491687-26.185-58.491687-58.491687 0-32.305025 26.191647-58.496672 58.491687-58.496672 32.305025 0 58.496672 26.191647 58.496672 58.496672C652.722357 839.17624 626.529049 865.36124 594.225686 865.36124M652.722357 624.699522c0 32.306687-26.191647 58.491687-58.496672 58.491687-32.30004 0-58.491687-26.185-58.491687-58.491687L535.733999 340.388382c0-32.306687 26.191647-58.496672 58.491687-58.496672 32.305025 0 58.496672 26.189985 58.496672 58.496672L652.722357 624.699522z" p-id="7335" fill="#515151"></path></svg>